<?xml version="1.0" encoding="iso-8859-1"?>
<!-- Generator: Adobe Illustrator 19.0.0, SVG Export Plug-In . SVG Version: 6.00 Build 0)  -->
<svg version="1.1" id="Layer_1" xmlns="http://www.w3.org/2000/svg" xmlns:xlink="http://www.w3.org/1999/xlink" x="0px" y="0px"
	 viewBox="0 0 512 512" style="enable-background:new 0 0 512 512;" xml:space="preserve">
<path style="fill:#FBD337;" d="M85.377,503.112c-0.355,0.012-0.699,0.012-1.054,0.012c-11.248,0-21.43-4.558-28.795-11.923
	c-7.376-7.376-11.923-17.547-11.923-28.807V421.7V49.141h15.676h26.534v28.416h33.152V49.141h169.656h26.534v28.416h33.152V49.141
	h38.646V421.7H125.041v40.694C125.042,484.535,107.376,502.555,85.377,503.112z M285.746,272.586
	c4.428-8.75,6.642-19.276,6.642-31.589c0-14.03-2.557-25.421-7.649-34.182c-5.103-8.75-11.686-15.57-19.761-20.483
	c-8.075-4.902-17.168-8.17-27.256-9.804c-10.1-1.634-20.152-2.451-30.145-2.451c-9.626,0-19.287,0.438-28.996,1.302
	s-18.601,2.06-26.687,3.599v199.907h39.522v-69.513c0.959,0.189,2.546,0.379,4.76,0.568c2.214,0.201,4.476,0.343,6.784,0.438
	c2.309,0.095,4.511,0.142,6.63,0.142s3.659,0,4.618,0c9.993,0,19.666-1.302,28.996-3.895c9.318-2.593,17.642-6.725,24.947-12.397
	C275.457,288.558,281.318,281.348,285.746,272.586z"/>
<g>
	<polyline style="fill:#95D6BE;" points="89.184,503.118 89.184,109.447 341.377,109.447 341.377,422.256 	"/>
	<path style="fill:#FFF;" d="M247.385,224.705c2.309,4.132,3.457,9.377,3.457,15.724c0,7.495-1.196,13.557-3.599,18.174
		c-2.415,4.606-5.624,8.217-9.661,10.81c-4.049,2.605-8.62,4.381-13.711,5.34c-5.091,0.959-10.242,1.444-15.428,1.444
		c-0.77,0-1.977,0-3.611,0c-1.634,0-3.315-0.047-5.044-0.142c-1.729-0.095-3.374-0.249-4.902-0.438
		c-1.539-0.189-2.7-0.379-3.469-0.58v-65.475c2.119-0.391,4.902-0.722,8.371-1.018c3.457-0.284,7.116-0.426,10.964-0.426
		c4.997,0,9.898,0.485,14.705,1.444s9.093,2.688,12.835,5.186C242.045,217.258,245.076,220.573,247.385,224.705z"/>
</g>
<g>
	<path style="fill:#F63641;" d="M292.389,240.997c0,12.314-2.214,22.839-6.642,31.589c-4.428,8.762-10.289,15.972-17.594,21.644
		c-7.305,5.671-15.629,9.804-24.947,12.397c-9.33,2.593-19.003,3.895-28.996,3.895c-0.959,0-2.498,0-4.618,0
		c-2.119,0-4.322-0.047-6.63-0.142c-2.309-0.095-4.57-0.237-6.784-0.438c-2.214-0.189-3.801-0.379-4.76-0.568v69.513h-39.522
		V178.979c8.087-1.539,16.979-2.735,26.687-3.599s19.37-1.302,28.996-1.302c9.993,0,20.045,0.817,30.145,2.451
		c10.088,1.634,19.181,4.902,27.256,9.804c8.075,4.914,14.658,11.733,19.761,20.483
		C289.831,215.576,292.389,226.966,292.389,240.997z M250.842,240.429c0-6.346-1.148-11.591-3.457-15.724
		c-2.309-4.132-5.34-7.447-9.093-9.957c-3.741-2.498-8.028-4.227-12.835-5.186c-4.807-0.959-9.709-1.444-14.705-1.444
		c-3.848,0-7.507,0.142-10.964,0.426c-3.469,0.296-6.252,0.628-8.371,1.018v65.475c0.77,0.201,1.93,0.391,3.469,0.58
		c1.527,0.189,3.173,0.343,4.902,0.438s3.41,0.142,5.044,0.142c1.634,0,2.842,0,3.611,0c5.186,0,10.336-0.485,15.428-1.444
		c5.091-0.959,9.661-2.735,13.711-5.34c4.037-2.593,7.246-6.204,9.661-10.81C249.646,253.985,250.842,247.923,250.842,240.429z"/>
	<rect x="288.625" y="8.885" style="fill:#FFF;" width="26.534" height="40.256"/>
	<rect x="59.283" y="8.885" style="fill:#FFF;" width="26.534" height="40.256"/>
</g>
<g>
	<polygon style="fill:#FFF;" points="348.309,49.141 348.309,77.557 315.157,77.557 315.157,49.141 315.157,8.885 348.309,8.885 
			"/>
	<polygon style="fill:#FFF;" points="118.968,49.141 118.968,77.557 85.815,77.557 85.815,49.141 85.815,8.885 118.968,8.885 	
		"/>
</g>
<path style="fill:#FCD61B;" d="M468.403,421.7v40.694c0,11.26-4.558,21.43-11.923,28.807c-7.388,7.365-17.559,11.923-28.795,11.923
	v-0.012H85.377c21.999-0.556,39.664-18.577,39.664-40.718V421.7h261.914H468.403z"/>
<g>
	<path style="fill:#333333;" d="M468.398,412.815h-72.563V49.136c0-4.904-3.975-8.88-8.88-8.88h-29.762V8.88
		c0-4.904-3.975-8.88-8.88-8.88h-59.686c-4.905,0-8.88,3.976-8.88,8.88v31.376H127.848V8.88c0-4.904-3.975-8.88-8.88-8.88H59.282
		c-4.905,0-8.88,3.976-8.88,8.88v31.376h-6.796c-4.905,0-8.88,3.976-8.88,8.88v372.559h-0.005V462.4
		c0,13.254,5.158,25.712,14.524,35.077C58.611,506.842,71.069,512,84.321,512c0.161,0,0.321,0,0.48-0.002L427.68,512
		c13.237,0,25.692-5.155,35.076-14.523c9.364-9.365,14.523-21.822,14.523-35.076v-40.706
		C477.278,416.791,473.303,412.815,468.398,412.815z M324.042,49.136V17.76h15.392v50.912h-15.392V49.136z M297.507,17.76h8.773
		v22.496h-8.773V17.76z M94.695,49.136V17.76h15.392v50.912H94.695V49.136z M68.162,17.76h8.773v22.496h-8.773
		C68.162,40.256,68.162,17.76,68.162,17.76z M116.16,421.695V462.4c0,17.429-14.075,31.631-31.454,31.838h-0.384l-0.001,0.002
		c-8.511,0-16.506-3.31-22.519-9.322c-6.012-6.011-9.322-14.008-9.322-22.519v-40.705h0.005V58.016h24.45v19.536
		c0,4.904,3.975,8.88,8.88,8.88h33.152c4.905,0,8.88-3.976,8.88-8.88V58.016h178.433v19.536c0,4.904,3.975,8.88,8.88,8.88h33.152
		c4.905,0,8.88-3.976,8.88-8.88V58.016h20.882v354.799H125.04C120.136,412.815,116.16,416.791,116.16,421.695z M459.518,462.4
		c0,8.511-3.31,16.507-9.316,22.513c-6.024,6.014-14.02,9.324-22.516,9.324c-0.002,0-0.005,0-0.007,0H122.325
		c7.233-8.621,11.595-19.73,11.595-31.838v-31.824h325.598V462.4z"/>
	<path style="fill:#333333;" d="M332.497,394.865c0,4.904,3.975,8.88,8.88,8.88s8.88-3.976,8.88-8.88V109.447
		c0-4.904-3.975-8.88-8.88-8.88H89.184c-4.905,0-8.88,3.976-8.88,8.88v352.208c0,4.904,3.975,8.88,8.88,8.88
		c4.905,0,8.88-3.976,8.88-8.88V118.327h234.433V394.865z"/>
	<path style="fill:#333333;" d="M243.218,207.361c-4.699-3.129-10.087-5.319-16.02-6.51c-5.365-1.072-10.899-1.614-16.451-1.614
		c-4.075,0-8.013,0.156-11.7,0.463c-3.769,0.314-6.782,0.681-9.212,1.121c-4.225,0.766-7.296,4.445-7.296,8.738v65.483
		c0,4.067,2.762,7.613,6.705,8.609c1.153,0.291,2.642,0.547,4.526,0.778c1.737,0.219,3.597,0.384,5.507,0.489
		c1.841,0.105,3.709,0.159,5.554,0.159h3.606c5.736,0,11.484-0.538,17.077-1.596c6.198-1.167,11.871-3.386,16.859-6.593
		c5.33-3.425,9.615-8.196,12.741-14.188c3.057-5.876,4.608-13.37,4.608-22.272c0-7.845-1.544-14.59-4.588-20.051
		C252.146,215.02,248.138,210.641,243.218,207.361z M239.367,254.492c-1.7,3.257-3.855,5.695-6.593,7.455
		c-3.056,1.965-6.604,3.338-10.552,4.081c-4.515,0.855-9.151,1.287-13.782,1.287h-3.606c-1.5,0-3.018-0.043-4.534-0.129v-49.77
		c0.075-0.006,0.148-0.012,0.223-0.019c3.199-0.266,6.639-0.401,10.225-0.401c4.386,0,8.751,0.427,12.964,1.269
		c3.647,0.732,6.898,2.036,9.657,3.873c2.586,1.725,4.633,3.979,6.259,6.89c1.551,2.78,2.337,6.614,2.337,11.396
		C241.964,246.446,241.089,251.182,239.367,254.492z"/>
	<path style="fill:#333333;" d="M269.587,178.747c-9.016-5.475-19.261-9.169-30.453-10.983c-10.534-1.703-21.153-2.566-31.561-2.566
		c-9.833,0-19.852,0.449-29.778,1.333c-9.94,0.884-19.212,2.138-27.557,3.727c-4.189,0.797-7.22,4.459-7.22,8.724v199.908
		c0,4.904,3.975,8.88,8.88,8.88h39.521c4.905,0,8.88-3.976,8.88-8.88v-59.75c0.758,0.043,1.517,0.078,2.276,0.11
		c2.353,0.101,4.714,0.153,7.019,0.153h4.614c10.753,0,21.309-1.42,31.374-4.22c10.399-2.895,19.825-7.587,28.015-13.944
		c8.316-6.455,15.072-14.747,20.077-24.645c5.037-9.965,7.589-21.94,7.589-35.592c0-15.555-2.978-28.559-8.852-38.655
		C286.583,192.344,278.904,184.404,269.587,178.747z M277.824,268.583c-3.808,7.53-8.894,13.797-15.117,18.627
		c-6.358,4.935-13.724,8.591-21.886,10.864c-8.514,2.368-17.468,3.57-26.613,3.57h-4.614c-2.05,0-4.155-0.046-6.274-0.137
		c-2.156-0.089-4.298-0.225-6.382-0.407c-2.599-0.223-3.537-0.388-3.763-0.433c-2.607-0.529-5.32,0.146-7.38,1.832
		c-2.06,1.686-3.256,4.209-3.256,6.872v60.641h-21.761V186.459c5.812-0.906,12.038-1.655,18.592-2.239
		c9.405-0.838,18.893-1.263,28.202-1.263c9.461,0,19.126,0.787,28.724,2.337c8.919,1.446,17.019,4.35,24.073,8.633
		c6.852,4.161,12.312,9.84,16.694,17.357c4.272,7.343,6.439,17.341,6.439,29.719C283.504,251.847,281.593,261.126,277.824,268.583z"
		/>
</g>
<g>
</g>
<g>
</g>
<g>
</g>
<g>
</g>
<g>
</g>
<g>
</g>
<g>
</g>
<g>
</g>
<g>
</g>
<g>
</g>
<g>
</g>
<g>
</g>
<g>
</g>
<g>
</g>
<g>
</g>
</svg>
